<mxfile host="app.diagrams.net" modified="2023-09-14T06:55:34.913Z" agent="Mozilla/5.0 (Windows NT 10.0; Win64; x64) AppleWebKit/537.36 (KHTML, like Gecko) Chrome/114.0.0.0 Safari/537.36" version="21.7.5" etag="w2FN3loYtWKT59T5Zuka" type="github">
  <diagram name="第 1 页" id="GJOgWCF3R6SzKfueunYG">
    <mxGraphModel>
      <root>
        <mxCell id="0" />
        <mxCell id="1" parent="0" />
      </root>
    </mxGraphModel>
  </diagram>
</mxfile>
